<svg id="visual" viewBox="0 0 1920 1080" width="1920" height="1080" xmlns="http://www.w3.org/2000/svg" xmlns:xlink="http://www.w3.org/1999/xlink" version="1.1"><g stroke-width="1" stroke-linejoin="bevel"><path d="M966 433L952 665L1189 626Z" fill="#246688" stroke="#246688"></path><path d="M1189 626L1233 416L966 433Z" fill="#205a7a" stroke="#205a7a"></path><path d="M702 660L926 840L952 665Z" fill="#297ea6" stroke="#297ea6"></path><path d="M952 665L1169 877L1189 626Z" fill="#00101c" stroke="#00101c"></path><path d="M926 840L1169 877L952 665Z" fill="#0c2435" stroke="#0c2435"></path><path d="M1189 626L1458 415L1233 416Z" fill="#297ea6" stroke="#297ea6"></path><path d="M973 185L732 408L966 433Z" fill="#297ea6" stroke="#297ea6"></path><path d="M966 433L732 408L952 665Z" fill="#297ea6" stroke="#297ea6"></path><path d="M732 408L702 660L952 665Z" fill="#1d4e6b" stroke="#1d4e6b"></path><path d="M1233 416L1219 214L966 433Z" fill="#081a28" stroke="#081a28"></path><path d="M1219 214L973 185L966 433Z" fill="#00101c" stroke="#00101c"></path><path d="M1467 676L1458 415L1189 626Z" fill="#081a28" stroke="#081a28"></path><path d="M1233 416L1449 243L1219 214Z" fill="#081a28" stroke="#081a28"></path><path d="M1422 868L1467 676L1189 626Z" fill="#15384f" stroke="#15384f"></path><path d="M702 660L695 851L926 840Z" fill="#246688" stroke="#246688"></path><path d="M926 840L935 1080L1169 877Z" fill="#19435d" stroke="#19435d"></path><path d="M1169 877L1422 868L1189 626Z" fill="#00101c" stroke="#00101c"></path><path d="M973 185L687 226L732 408Z" fill="#19435d" stroke="#19435d"></path><path d="M460 453L502 651L702 660Z" fill="#15384f" stroke="#15384f"></path><path d="M702 660L502 651L695 851Z" fill="#246688" stroke="#246688"></path><path d="M1458 415L1449 243L1233 416Z" fill="#277297" stroke="#277297"></path><path d="M695 851L935 1080L926 840Z" fill="#081a28" stroke="#081a28"></path><path d="M1169 877L1185 1080L1422 868Z" fill="#15384f" stroke="#15384f"></path><path d="M935 1080L1185 1080L1169 877Z" fill="#205a7a" stroke="#205a7a"></path><path d="M460 453L702 660L732 408Z" fill="#112e42" stroke="#112e42"></path><path d="M1234 0L937 0L973 185Z" fill="#112e42" stroke="#112e42"></path><path d="M973 185L727 0L687 226Z" fill="#0c2435" stroke="#0c2435"></path><path d="M1234 0L973 185L1219 214Z" fill="#1d4e6b" stroke="#1d4e6b"></path><path d="M1404 0L1234 0L1219 214Z" fill="#081a28" stroke="#081a28"></path><path d="M687 226L460 453L732 408Z" fill="#246688" stroke="#246688"></path><path d="M1458 415L1651 400L1449 243Z" fill="#19435d" stroke="#19435d"></path><path d="M1449 243L1404 0L1219 214Z" fill="#297ea6" stroke="#297ea6"></path><path d="M1467 676L1651 400L1458 415Z" fill="#0c2435" stroke="#0c2435"></path><path d="M1711 633L1651 400L1467 676Z" fill="#081a28" stroke="#081a28"></path><path d="M1185 1080L1425 1080L1422 868Z" fill="#00101c" stroke="#00101c"></path><path d="M1706 832L1711 633L1467 676Z" fill="#205a7a" stroke="#205a7a"></path><path d="M695 851L682 1080L935 1080Z" fill="#246688" stroke="#246688"></path><path d="M513 1080L682 1080L695 851Z" fill="#205a7a" stroke="#205a7a"></path><path d="M937 0L727 0L973 185Z" fill="#112e42" stroke="#112e42"></path><path d="M687 226L443 185L460 453Z" fill="#0c2435" stroke="#0c2435"></path><path d="M1703 0L1404 0L1449 243Z" fill="#246688" stroke="#246688"></path><path d="M237 642L460 837L502 651Z" fill="#19435d" stroke="#19435d"></path><path d="M502 651L460 837L695 851Z" fill="#00101c" stroke="#00101c"></path><path d="M1706 832L1467 676L1422 868Z" fill="#297ea6" stroke="#297ea6"></path><path d="M1689 1080L1706 832L1422 868Z" fill="#081a28" stroke="#081a28"></path><path d="M502 0L443 185L687 226Z" fill="#15384f" stroke="#15384f"></path><path d="M460 453L237 642L502 651Z" fill="#112e42" stroke="#112e42"></path><path d="M1920 399L1704 206L1651 400Z" fill="#112e42" stroke="#112e42"></path><path d="M1651 400L1704 206L1449 243Z" fill="#1d4e6b" stroke="#1d4e6b"></path><path d="M460 837L513 1080L695 851Z" fill="#1d4e6b" stroke="#1d4e6b"></path><path d="M727 0L502 0L687 226Z" fill="#297ea6" stroke="#297ea6"></path><path d="M243 218L262 408L443 185Z" fill="#246688" stroke="#246688"></path><path d="M443 185L262 408L460 453Z" fill="#081a28" stroke="#081a28"></path><path d="M460 837L257 876L513 1080Z" fill="#246688" stroke="#246688"></path><path d="M1425 1080L1689 1080L1422 868Z" fill="#19435d" stroke="#19435d"></path><path d="M262 408L237 642L460 453Z" fill="#205a7a" stroke="#205a7a"></path><path d="M1920 0L1703 0L1704 206Z" fill="#246688" stroke="#246688"></path><path d="M1704 206L1703 0L1449 243Z" fill="#081a28" stroke="#081a28"></path><path d="M237 642L257 876L460 837Z" fill="#00101c" stroke="#00101c"></path><path d="M1706 832L1920 661L1711 633Z" fill="#19435d" stroke="#19435d"></path><path d="M1711 633L1920 399L1651 400Z" fill="#081a28" stroke="#081a28"></path><path d="M1920 884L1920 661L1706 832Z" fill="#112e42" stroke="#112e42"></path><path d="M1920 661L1920 399L1711 633Z" fill="#297ea6" stroke="#297ea6"></path><path d="M254 0L243 218L443 185Z" fill="#112e42" stroke="#112e42"></path><path d="M0 430L0 669L237 642Z" fill="#19435d" stroke="#19435d"></path><path d="M1689 1080L1920 884L1706 832Z" fill="#112e42" stroke="#112e42"></path><path d="M1920 399L1920 212L1704 206Z" fill="#0c2435" stroke="#0c2435"></path><path d="M0 1080L239 1080L257 876Z" fill="#081a28" stroke="#081a28"></path><path d="M257 876L239 1080L513 1080Z" fill="#297ea6" stroke="#297ea6"></path><path d="M502 0L254 0L443 185Z" fill="#15384f" stroke="#15384f"></path><path d="M1689 1080L1920 1080L1920 884Z" fill="#297ea6" stroke="#297ea6"></path><path d="M1920 212L1920 0L1704 206Z" fill="#205a7a" stroke="#205a7a"></path><path d="M0 430L237 642L262 408Z" fill="#277297" stroke="#277297"></path><path d="M237 642L0 849L257 876Z" fill="#112e42" stroke="#112e42"></path><path d="M0 430L262 408L243 218Z" fill="#246688" stroke="#246688"></path><path d="M0 202L0 430L243 218Z" fill="#205a7a" stroke="#205a7a"></path><path d="M0 669L0 849L237 642Z" fill="#081a28" stroke="#081a28"></path><path d="M254 0L0 202L243 218Z" fill="#15384f" stroke="#15384f"></path><path d="M0 849L0 1080L257 876Z" fill="#0c2435" stroke="#0c2435"></path><path d="M254 0L0 0L0 202Z" fill="#112e42" stroke="#112e42"></path></g></svg>